<?xml version="1.0" encoding="utf-8"?>
<!-- Svg Vector Icons : http://www.onlinewebfonts.com/icon -->
<!DOCTYPE svg PUBLIC "-//W3C//DTD SVG 1.1//EN" "http://www.w3.org/Graphics/SVG/1.1/DTD/svg11.dtd">
<svg version="1.1" xmlns="http://www.w3.org/2000/svg" xmlns:xlink="http://www.w3.org/1999/xlink" x="0px" y="0px"
    viewBox="0 0 1000 1000" enable-background="new 0 0 1000 1000" xml:space="preserve">
    <g>
        <g transform="translate(0.000000,512.000000) scale(0.100000,-0.100000)">
            <path
                fill="#cff3c6"
                d="M3471,4996.9c-32.7-53.8-1370.4-2675.4-1366.5-2679.2c1.9-1.9,613.1-309.4,1358.8-686.1l1355-684.2l228.7,442.1c124.9,244.1,222.9,445.9,221,447.8c-3.9,3.8-261.4,134.5-568.9,292.1c-309.4,157.6-563.1,292.1-563.1,297.9c0,23.1,395.9,96.1,636.2,115.3c709.2,59.6,1451.1-148,2054.6-574.7c232.6-165.3,568.9-499.7,734.2-734.2C7805,891.6,7989.5,461.1,8079.9,28.6c38.4-178.7,44.2-263.3,42.3-601.6c0-334.4-7.7-424.7-44.2-595.8c-205.6-962.9-797.6-1737.5-1654.8-2169.9c-626.6-313.3-1283.9-415.1-1950.8-299.8c-1262.7,217.2-2256.4,1164.7-2540.8,2421.7c-71.1,319-82.6,814.9-26.9,1143.6c44.2,263.3,103.8,472.8,194.1,691.9c32.7,76.9,51.9,148,44.2,155.7c-9.6,5.8-242.2,94.2-520.8,194.1l-503.6,182.6l-40.4-88.4c-130.7-296-249.9-759.2-296-1149.3c-163.4-1391.5,401.7-2811.8,1472.2-3697.9c597.7-497.8,1264.7-807.2,2025.8-941.8c294.1-51.9,839.9-69.2,1151.3-38.4C6913.2-4611,8200.9-3703.8,8842.9-2360.4c194.1,405.5,338.3,937.9,384.4,1410.7c105.7,1080.1-247.9,2227.6-943.7,3057.8c-740,886-1747.1,1418.4-2888.7,1529.9c-428.6,42.3-1032.1-3.9-1435.7-109.6c-63.4-15.4-117.2-26.9-119.1-23.1c-3.9,3.8,117.2,244.1,265.2,534.3l272.9,528.5l-442.1,226.8c-242.2,123-442.1,224.9-445.9,224.9C3488.2,5020,3478.6,5008.5,3471,4996.9z" />
        </g>
    </g>
</svg>